<?xml version="1.0"?>
<svg width="640" height="480" xmlns="http://www.w3.org/2000/svg" xmlns:svg="http://www.w3.org/2000/svg">
 <!-- Created with SVG-edit - http://svg-edit.googlecode.com/ -->
 <g>
  <title>Layer 1</title>
  <ellipse stroke="#000000" ry="132" rx="141.500001" id="svg_1" cy="295" cx="327.499999" stroke-width="5" fill="#007fff"/>
  <ellipse stroke="#000000" ry="46.5" rx="45.999999" id="svg_4" cy="283.5" cx="256.000001" stroke-linecap="null" stroke-linejoin="null" stroke-dasharray="null" stroke-width="5" fill="#ffffff"/>
  <ellipse ry="56" rx="53" id="svg_6" cy="287" cx="365" stroke-linecap="null" stroke-linejoin="null" stroke-dasharray="null" stroke-width="5" stroke="#000000" fill="#ffffff"/>
  <ellipse ry="21" rx="19" id="svg_8" cy="306" cx="254" stroke-linecap="null" stroke-linejoin="null" stroke-dasharray="null" stroke-width="5" stroke="#000000" fill="#000000"/>
  <ellipse ry="26" rx="23" id="svg_9" cy="310" cx="348" stroke-linecap="null" stroke-linejoin="null" stroke-dasharray="null" stroke-width="5" stroke="#000000" fill="#000000"/>
  <path d="m220,233c0.801331,0 1.699997,0 2.600006,0c0.899994,0 1.797943,-0.000092 2.399994,-0.5c0.619736,-0.514603 1.310364,-1.118042 2.199997,-1.414673c0.857483,-0.285919 1.46933,-0.633743 2.157166,-1.028168c0.819412,-0.469879 1.844177,-0.057159 2.528168,-0.057159c0.940002,0 1.957733,0.092896 2.740005,-0.035995c0.881866,-0.145294 1.691956,-0.726288 2.617493,-0.906845c0.843185,-0.16449 1.757172,-0.057159 2.557175,-0.057159c0.899994,0 1.648346,-0.242035 2.283997,-0.716003c0.768814,-0.573257 1.716003,-0.283997 2.552002,-0.283997c1.016663,0 1.711334,0 2.727997,0c0.936005,0 1.835999,0 2.736328,0c0.714005,0 1.669006,0 2.420502,0c0.796509,0 2.022003,0 2.668503,0c1.010498,0 1.789825,0 2.789154,0c1.021515,0 1.821503,0 2.721527,0c0.820831,0 1.785309,0 2.510651,0c0.989349,0 1.789368,-0.00676 2.789337,0c0.789398,0.005341 1.822937,0.186554 2.589325,0.574661c0.810913,0.41066 1.731995,0.425217 2.410675,0.425339c0.978821,0.000168 1.830627,0.072815 2.768005,0.567993c0.494568,0.261261 1.226654,0.726669 2.261322,1.261337l0.768005,0.167999l0.917328,0.087997l0.506836,0.793335" id="svg_10" stroke-linecap="null" stroke-linejoin="null" stroke-dasharray="null" stroke-width="5" stroke="#000000" fill="none"/>
  <path stroke="#000000" d="m316,230c1.861298,-0.166672 2.089264,-1.106094 2.650452,-1.563995c0.695648,-0.567627 1.63266,-0.936493 2.425781,-1.269333c0.76297,-0.32019 1.450714,-0.537369 2.255341,-1.045166c0.758118,-0.478439 1.80603,-0.096146 2.617798,-0.121506c0.915131,-0.028595 1.68573,-0.575348 2.436615,-0.916c0.876495,-0.397629 1.550201,-0.847214 2.490051,-1.02684c0.862213,-0.164795 1.85434,-0.057098 2.692261,-0.057159c1.032318,-0.000092 1.768982,0.139023 2.714752,-0.221329c0.789703,-0.300903 1.562195,-0.611252 2.458405,-0.789337c0.95816,-0.190384 1.611603,-0.904297 2.436584,-0.988007c0.908936,-0.092224 1.827454,-0.001328 2.74118,-0.001328c0.913696,0 1.884918,0.136566 2.74115,-0.283997c0.671722,-0.329926 1.522888,-0.713745 2.356232,-0.716003c0.977844,-0.00264 1.861542,0.108383 2.763458,-0.004501c0.890503,-0.11145 1.547241,-0.841354 2.393127,-0.984833c0.900513,-0.152756 1.827423,-0.010666 2.741119,-0.010666c0.9151,0 1.895142,0 2.74118,0c0.993408,0 1.748352,0.184769 2.639648,-0.035995c0.876007,-0.21698 1.621307,-0.921295 2.538116,-0.964005c0.912689,-0.042526 1.725891,0 2.697662,0c0.913696,0 1.672455,0 2.681763,0c0.777008,0 1.872253,0 2.742676,0c0.79715,0 1.762299,0 2.539276,0c1.009338,0 1.768066,0 2.80481,0c0.950256,0 1.863983,0.001328 2.77771,0.221329l0.609131,0.42601l0.913727,0.377991" id="svg_11" stroke-linecap="null" stroke-linejoin="null" stroke-dasharray="null" stroke-width="5" fill="none"/>
 </g>
</svg>